<svg width="17" height="20" viewBox="0 0 17 20" fill="none" xmlns="http://www.w3.org/2000/svg">
<path d="M7.75438 16C9.26315 14.1017 9.81637 5.79661 7 2" stroke="#F8F8F9" stroke-width="3" stroke-linecap="round"/>
<path d="M7.66094 16.4668C9.2923 13.344 4.63125 11.2622 2.30059 15.0095C0.617979 17.7149 6.49573 19.3814 7.66094 16.4668Z" fill="#F8F8F9" stroke="#F8F8F9" stroke-width="3" stroke-linecap="round"/>
<path d="M13.5 10C13.5 10.8284 14.1716 11.5 15 11.5C15.8284 11.5 16.5 10.8284 16.5 10H13.5ZM7.00002 3.5C8.41648 3.49998 10.0359 3.67695 11.2794 4.50545C12.4041 5.25475 13.5 6.72949 13.5 10H16.5C16.5 5.95623 15.0774 3.43095 12.9428 2.00881C10.9271 0.665872 8.54648 0.499983 6.99998 0.5L7.00002 3.5Z" fill="#F8F8F9"/>
</svg>
