<svg width="375" height="263" viewBox="0 0 375 263" fill="none" xmlns="http://www.w3.org/2000/svg">
<path fill-rule="evenodd" clip-rule="evenodd" d="M0.284875 1.07027C0.0218745 1.76027 -0.0771267 60.8243 0.0648733 132.324L0.321873 262.324H65.8219H131.322H262.322L262.609 253.15L262.895 243.975L269.609 243.316C312.675 239.085 349.706 211.831 365.931 172.426C372.214 157.166 374.181 146.818 374.217 128.824C374.25 112.635 373.43 106.831 369.235 93.5563C366.174 83.8693 363.132 77.0083 358.542 69.4403C339.029 37.2653 307.416 17.5343 268.618 13.3123L262.914 12.6923L262.618 6.50827L262.322 0.324271L131.542 0.0702694C27.4449 -0.131731 0.664875 0.0722693 0.284875 1.07027ZM256.822 7.23027C256.822 8.13427 257.521 8.45427 258.777 8.12627C262.014 7.27927 262.197 11.5523 259.388 22.3603L256.822 32.2343V135.029C256.822 237.157 256.809 237.824 254.822 237.824C253.336 237.824 252.822 238.491 252.822 240.418C252.822 242.17 253.471 243.181 254.822 243.534C256.559 243.988 256.822 244.898 256.822 250.441V256.824H175.775C97.7969 256.824 96.5 256.839 82.5 256.839C82.5 256.839 64 256.839 48 256.839C41.5 256.839 40.3729 256.85 25.0719 256.839L5.82187 256.824V131.324V5.82427H131.322C238.498 5.82427 256.822 6.02927 256.822 7.23027ZM266.3 22.0743C265.885 23.3113 265.495 26.0863 265.434 28.2393C265.372 30.3933 264.76 32.3433 264.072 32.5733C263.156 32.8793 262.822 31.2303 262.822 26.4073C262.822 20.3703 262.997 19.8243 264.939 19.8243C266.691 19.8243 266.925 20.2123 266.3 22.0743ZM313.822 33.8603C322.374 38.8803 325.842 41.6333 320.322 39.0213C308.956 33.6423 305.056 31.5273 302.322 29.2603L299.322 26.7733L303.322 28.4093C305.522 29.3093 310.247 31.7623 313.822 33.8603ZM278.822 30.9003C281.074 31.5783 280.975 31.6593 277.822 31.7243C273.298 31.8183 269.695 30.8393 270.395 29.7073C270.914 28.8663 273.073 29.1723 278.822 30.9003ZM266.612 45.4653C268.755 46.0393 268.796 46.1953 267.262 47.8903C266.36 48.8873 265.622 51.2803 265.622 53.2093C265.622 55.1373 265.006 57.5273 264.254 58.5203C263.058 60.0973 262.882 59.3473 262.854 52.5743C262.836 48.3113 263.159 44.8303 263.572 44.8383C263.985 44.8453 265.352 45.1273 266.612 45.4653ZM344.725 60.3243C349.187 65.9793 355.822 76.1933 355.822 77.4073C355.822 78.3183 349.452 73.6623 347.639 71.4263C346.713 70.2843 345.697 67.9943 345.381 66.3373C345.058 64.6473 341.97 60.0323 338.347 55.8243C334.795 51.6993 331.874 47.8953 331.855 47.3713C331.805 45.9273 339.385 53.5573 344.725 60.3243ZM125.895 58.4593C124.383 60.3813 123.822 62.5453 123.822 66.4593C123.822 70.4683 123.457 71.8243 122.379 71.8243C121.585 71.8243 120.235 72.8243 119.379 74.0473C118.1 75.8713 117.822 79.7173 117.822 95.5473C117.822 112.044 117.605 114.824 116.317 114.824C114.067 114.824 105.014 124.514 101.582 130.595C98.8239 135.482 98.3369 135.876 95.7629 135.311C93.5029 134.815 92.6389 135.173 91.3489 137.143C90.4659 138.489 89.8739 140.031 90.0329 140.567C90.1919 141.104 87.3629 145.319 83.7459 149.934C80.1289 154.548 75.7479 160.421 74.0089 162.985C71.1679 167.174 62.2359 175.801 60.7219 175.818C59.7369 175.828 60.6299 135.391 61.9409 120.653C62.8799 110.088 62.8909 103.612 61.9909 92.1533C60.6049 74.5153 59.9019 71.4303 57.1779 71.0273C54.0209 70.5613 53.1379 74.0033 54.0609 83.1853C55.1699 94.2313 55.2589 116.002 54.3559 155.162C53.8599 176.663 53.9419 188.344 54.5949 188.997C55.7799 190.182 74.1209 172.698 79.0939 165.643C87.1899 154.155 96.8219 143.033 96.8219 145.172C96.8219 145.569 97.7139 145.417 98.8039 144.834C99.8929 144.251 102.031 141.21 103.554 138.077C105.076 134.944 108.862 129.67 111.966 126.358L117.61 120.335L118.254 126.83C119.213 136.497 119.417 175.942 118.523 178.824C117.923 180.76 118.319 182.001 120.281 184.324L122.814 187.324L124.818 184.963C125.92 183.665 126.822 181.889 126.822 181.017C126.822 178.295 132.013 171.787 136.768 168.548C143.169 164.188 148.239 160.136 154.723 154.197C157.803 151.378 162.347 148.055 164.822 146.813C173.997 142.21 186.822 129.17 186.822 124.445C186.822 121.637 180.936 114.835 173.612 109.178C169.413 105.936 166.963 102.99 164.353 98.0463C160.859 91.4293 147.358 74.5023 137.139 63.9263C134.27 60.9573 131.689 57.9203 131.404 57.1763C130.58 55.0303 128.145 55.5973 125.895 58.4593ZM60.4889 65.4913C58.3899 67.5893 60.2839 71.3623 67.0859 78.6373C71.0819 82.9093 77.2439 89.9863 80.7789 94.3643C84.3149 98.7423 90.4959 105.807 94.5149 110.063C98.5339 114.32 101.822 118.241 101.822 118.778C101.822 119.315 102.759 120.255 103.905 120.869C105.567 121.758 106.376 121.633 107.905 120.249C108.959 119.295 109.822 117.702 109.822 116.71C109.822 114.664 102.34 104.237 100.313 103.459C99.5819 103.178 94.8799 97.7663 89.8649 91.4323C80.3319 79.3923 65.4859 64.8243 62.7499 64.8243C61.8729 64.8243 60.8549 65.1243 60.4889 65.4913ZM145.088 87.9963C150.466 94.4483 156.543 102.641 158.594 106.201C161.323 110.941 164.173 114.101 169.231 118C178.781 125.359 178.939 125.747 174.222 130.219C172.077 132.253 167.677 135.235 164.444 136.847C161.211 138.458 156.261 141.944 153.444 144.593C150.627 147.242 145.172 151.607 141.322 154.292C137.472 156.977 133.311 160.072 132.076 161.169C130.841 162.267 129.65 162.976 129.43 162.745C129.21 162.513 130.127 154.674 131.468 145.324C132.809 135.974 134.156 122.474 134.462 115.324C134.944 104.061 134.738 101.324 132.92 94.8443C131.518 89.8443 130.833 84.5393 130.854 78.8443L130.885 70.3243L133.098 73.2953C134.315 74.9283 139.71 81.5443 145.088 87.9963ZM278.507 85.9943C281.251 87.1353 281.171 87.1933 275.322 88.2943C269.318 89.4243 268.142 89.0393 269.196 86.2913C269.876 84.5213 274.6 84.3703 278.507 85.9943ZM351.599 88.7683C353.967 90.9303 354.822 92.5753 354.822 94.9683C354.822 98.8133 354.147 98.2743 349.941 91.0743C346.468 85.1303 346.923 84.4973 351.599 88.7683ZM295.079 105.567C305.708 113.418 307.701 116.07 309.095 124.211C310.104 130.099 310.024 130.732 307.891 133.726C305.006 137.779 299.114 141.527 293.596 142.821C279.326 146.167 275.951 146.576 271.325 145.517C267.834 144.719 266.169 144.751 264.738 145.645C262.871 146.81 262.822 146.255 262.822 123.996V101.151L272.072 99.6203C277.159 98.7783 282.447 98.3163 283.822 98.5933C285.197 98.8703 290.263 102.008 295.079 105.567ZM128.452 105.667C129.189 109.594 128.211 128.456 126.992 133.824C126.358 136.618 126.059 135.123 125.51 126.418C125.131 120.42 124.836 111.645 124.854 106.918C124.882 99.1783 125.03 98.5153 126.341 100.248C127.142 101.306 128.092 103.745 128.452 105.667ZM367.708 114.733C368.973 124.285 369.064 136.354 367.893 139.324C367.113 141.303 366.492 135.049 365.261 112.824C364.625 101.339 366.086 102.478 367.708 114.733ZM321.122 131.574C321.758 134.853 318.206 141.94 313.342 147.097C311.546 149 309.879 151.152 309.637 151.878C309.309 152.862 308.694 152.696 307.224 151.226C305.261 149.263 305.267 149.238 308.651 145.789C313.192 141.162 317.554 134.74 318.373 131.478C319.233 128.049 320.447 128.091 321.122 131.574ZM328.362 140.697C327.533 143.309 315.191 161.726 311.998 165.115C309.481 167.787 300.866 173.201 300.197 172.532C300.02 172.355 301.776 170.751 304.098 168.966C310.253 164.235 320.467 152.272 324.496 145.074C327.981 138.848 329.492 137.137 328.362 140.697ZM346.233 159.653C341.73 168.869 337.518 174.386 328.69 182.635C322.996 187.956 313.442 193.777 312.291 192.626C312.091 192.426 315.344 190.026 319.522 187.293C332.591 178.743 341.071 168.452 346.451 154.614C348.547 149.223 349.376 147.931 349.634 149.653C349.825 150.934 348.295 155.434 346.233 159.653ZM300.882 153.251C299.288 155.173 291.196 157.85 287.394 157.714C284.777 157.621 284.966 157.478 288.67 156.75C291.062 156.279 294.662 155.038 296.67 153.99C301.212 151.621 302.41 151.411 300.882 153.251ZM357.377 162.658C356.306 165.881 354.127 169.032 350.655 172.376C346.361 176.511 345.934 176.749 348.055 173.824C349.451 171.899 352.332 166.356 354.458 161.506C357.528 154.499 358.388 153.222 358.642 155.288C358.817 156.719 358.248 160.035 357.377 162.658ZM270.503 169.221C270.602 169.293 268.914 170.321 266.753 171.505L262.822 173.658V170.696C262.822 167.819 262.93 167.753 266.572 168.411C268.635 168.784 270.403 169.148 270.503 169.221ZM289.822 177.824C288.997 178.357 287.647 178.793 286.822 178.793C285.489 178.793 285.489 178.686 286.822 177.824C287.647 177.291 288.997 176.855 289.822 176.855C291.155 176.855 291.155 176.962 289.822 177.824ZM280.322 180.347C277.572 181.054 274.055 181.675 272.506 181.728C268.476 181.865 266.277 183.312 264.845 186.768C262.933 191.384 264.02 192.809 269.541 192.922L274.322 193.02L270.142 194.172C267.842 194.806 265.63 195.662 265.225 196.074C263.385 197.948 262.822 196.268 262.822 188.904V180.983L269.072 180.404C272.51 180.086 276.672 179.667 278.322 179.474C284.419 178.762 285.187 179.096 280.322 180.347ZM353.855 183.271C352.647 185.225 351.44 186.824 351.173 186.824C350.294 186.824 352.026 182.361 353.601 180.568C356.083 177.741 356.24 179.412 353.855 183.271ZM342.939 183.016C342.423 184.374 337.604 189.612 332.23 194.655C324.485 201.924 321.851 203.824 319.517 203.824C316.865 203.824 312.993 205.342 294.822 213.505C287.107 216.971 274.822 220.787 274.822 219.718C274.822 219.226 275.57 218.824 276.484 218.824C277.398 218.824 281.576 216.814 285.767 214.356C293.993 209.534 297.717 208.022 310.822 204.186C321.245 201.135 326.148 197.957 335.822 187.981C339.947 183.727 343.447 180.314 343.6 180.397C343.753 180.479 343.455 181.658 342.939 183.016ZM347.879 192.718C347.321 193.76 343.458 198.234 339.294 202.66C320.233 222.922 297.568 233.944 268.072 237.296C263.961 237.763 262.822 237.59 262.822 236.497C262.822 235.595 263.618 235.246 265.072 235.511C266.31 235.736 270.663 234.773 274.747 233.372C278.831 231.971 282.811 230.824 283.592 230.824C284.373 230.824 291.468 227.899 299.359 224.324C307.25 220.749 314.647 217.824 315.797 217.824C320.492 217.824 325.263 214.395 336.504 202.941C343.004 196.318 348.45 190.882 348.607 190.862C348.764 190.841 348.436 191.676 347.879 192.718ZM281.461 206.454C276.412 209.19 262.822 212.75 262.822 211.338C262.822 210.603 265.31 209.595 268.831 208.902C272.136 208.252 276.299 207.086 278.081 206.311C282.458 204.408 285.036 204.517 281.461 206.454ZM208.212 209.979C204.645 213.943 204.011 219.112 205.534 231.798C206.591 240.593 207.356 243.672 208.824 245.041C209.877 246.022 211.207 246.824 211.78 246.824C212.353 246.824 212.822 247.499 212.822 248.324C212.822 249.577 214.871 249.824 225.263 249.824C232.153 249.824 237.969 249.395 238.299 248.862C238.671 248.259 239.829 248.326 241.395 249.039C243.427 249.965 244.198 249.876 245.508 248.567C247.539 246.535 247.963 231.999 246.142 226.824C245.464 224.899 244.89 220.806 244.866 217.729C244.797 208.884 243.828 208.397 225.467 207.979C210.639 207.642 210.278 207.684 208.212 209.979ZM268.572 218.81C270.515 218.832 270.02 220.005 266.28 224.241L262.822 228.157V222.874C262.822 217.883 262.946 217.624 265.072 218.194C266.31 218.525 267.885 218.803 268.572 218.81Z" fill="#F8F8F9"/>
</svg>
